<svg width="68" height="76" viewBox="0 0 68 76" fill="none" xmlns="http://www.w3.org/2000/svg">
<path d="M68 72.8351C68 74.5831 66.7307 76.0018 65.1667 76.0018H2.83333C1.26933 76.0018 0 74.5831 0 72.8351C0 67.5879 3.80517 63.3351 8.5 63.3351H59.5C64.1948 63.3351 68 67.5879 68 72.8351ZM62.9312 19.6446L67.1812 14.8408C68.2833 13.5963 68.272 11.5949 67.1585 10.3631C66.0422 9.13126 64.2515 9.14392 63.1522 10.3884L58.9022 15.1923C57.8 16.4368 57.8113 18.4381 58.9248 19.6699C59.4773 20.2779 60.197 20.5851 60.9167 20.5851C61.6477 20.5851 62.3787 20.2716 62.9312 19.6446ZM52.0993 9.37509L54.3008 4.62509C55.0205 3.07342 54.4765 1.16076 53.0882 0.356422C51.7055 -0.447911 49.9885 0.153755 49.2688 1.71176L47.0673 6.46175C46.3477 8.01342 46.8917 9.92609 48.28 10.7304C48.6937 10.9711 49.1413 11.0851 49.5805 11.0851C50.6033 11.0851 51.595 10.4644 52.0993 9.37509ZM9.07517 19.6699C10.1887 18.4381 10.1972 16.4368 9.09783 15.1923L4.84783 10.3884C3.75133 9.14392 1.95217 9.13442 0.8415 10.3631C-0.272 11.5949 -0.2805 13.5963 0.818833 14.8408L5.06883 19.6446C5.62133 20.2716 6.35233 20.5851 7.08333 20.5851C7.803 20.5851 8.5255 20.2779 9.07517 19.6699ZM19.72 10.7304C21.1083 9.92609 21.6523 8.01659 20.9327 6.46175L18.7312 1.71176C18.0087 0.153755 16.2945 -0.447911 14.9118 0.356422C13.5235 1.16076 12.9795 3.07026 13.6992 4.62509L15.9007 9.37509C16.405 10.4644 17.3938 11.0851 18.4195 11.0851C18.8587 11.0851 19.3035 10.9711 19.72 10.7304ZM59.5 41.1684V53.8351C59.5 55.5863 58.2335 57.0018 56.6667 57.0018H11.3333C9.7665 57.0018 8.5 55.5863 8.5 53.8351V41.1684C8.5 25.4523 19.9382 12.6684 34 12.6684C48.0618 12.6684 59.5 25.4523 59.5 41.1684ZM36.8333 31.6684C36.8333 29.9173 35.5668 28.5018 34 28.5018C27.7497 28.5018 22.6667 34.1828 22.6667 41.1684C22.6667 42.9196 23.9332 44.3351 25.5 44.3351C27.0668 44.3351 28.3333 42.9196 28.3333 41.1684C28.3333 37.6756 30.8748 34.8351 34 34.8351C35.5668 34.8351 36.8333 33.4196 36.8333 31.6684Z" fill="white"/>
</svg>
