<svg width="57" height="58" viewBox="0 0 57 58" fill="none" xmlns="http://www.w3.org/2000/svg">
<path d="M8.37832 51.2422L3.91602 1.19067H52.9508L48.484 51.2347L28.4037 56.8017L8.37832 51.2422Z" fill="#1572B6"/>
<path d="M28.4336 52.5467L44.6597 48.048L48.4771 5.28284H28.4336V52.5467Z" fill="#33A9DC"/>
<path d="M28.4336 23.4165H36.5566L37.1176 17.1305H28.4336V10.9918H43.8266L43.6793 12.6389L42.1702 29.5552H28.4336V23.4165Z" fill="white"/>
<path d="M28.4702 39.359L28.4431 39.367L21.6068 37.5211L21.1696 32.6251H15.0083L15.868 42.2639L28.4423 45.7537L28.4702 45.7457V39.359Z" fill="#EBEBEB"/>
<path d="M36.0347 29.2955L35.2953 37.5162L28.4487 39.3643V45.7511L41.0332 42.2635L41.1255 41.2262L42.1934 29.2955H36.0347Z" fill="white"/>
<path d="M28.4547 10.9918V17.1305H13.6271L13.5042 15.7511L13.2245 12.6389L13.0776 10.9918H28.4547ZM28.4338 23.4174V29.5561H21.6836L21.5606 28.1766L21.2806 25.0645L21.1341 23.4174H28.4338Z" fill="#EBEBEB"/>
</svg>
