<svg width="58" height="58" viewBox="0 0 58 58" fill="none" xmlns="http://www.w3.org/2000/svg">
<path d="M0.813721 1.05444H56.6955V56.9366H0.813721V1.05444Z" fill="#F0DB4F"/>
<path d="M52.1223 43.6086C51.7129 41.0592 50.0506 38.9179 45.1264 36.9211C43.4158 36.135 41.5087 35.5721 40.9405 34.2758C40.7387 33.5214 40.7119 33.0964 40.8396 32.6397C41.2061 31.1577 42.9752 30.6957 44.3773 31.1206C45.2804 31.4233 46.1352 32.1192 46.6508 33.2294C49.0622 31.6679 49.0573 31.6782 50.7411 30.6051C50.1246 29.6493 49.7957 29.2083 49.3921 28.7994C47.9418 27.1794 45.9656 26.3451 42.8051 26.4089L41.1588 26.6219C39.5812 27.0205 38.0777 27.8486 37.1961 28.9587C34.5508 31.9603 35.3052 37.2135 38.5241 39.3754C41.6953 41.7556 46.3539 42.2971 46.949 44.5228C47.528 47.2476 44.9465 48.1297 42.3806 47.8163C40.4896 47.4231 39.4379 46.462 38.3009 44.7143C36.2082 45.9254 36.2082 45.9254 34.0566 47.1628C34.5668 48.2784 35.103 48.7832 35.9583 49.7497C40.0062 53.8556 50.1358 53.6539 51.9526 47.4391C52.0263 47.2258 52.5156 45.8026 52.1223 43.6086ZM31.193 26.7379H25.9661L25.9447 40.2512C25.9447 43.1251 26.0933 45.7598 25.6259 46.5673C24.8613 48.1556 22.8797 47.9587 21.9767 47.6507C21.0575 47.199 20.5901 46.5566 20.0487 45.6486C19.9 45.3879 19.7884 45.1862 19.7509 45.1705L15.5012 47.773C16.2079 49.2234 17.2489 50.4822 18.5823 51.3C20.5741 52.4955 23.2511 52.862 26.0509 52.2191C27.8731 51.6884 29.4453 50.5889 30.2685 48.9154C31.4586 46.7213 31.2032 44.0657 31.1925 41.1284C31.2193 36.3363 31.193 31.5452 31.193 26.7379Z" fill="#323330"/>
</svg>
