<svg width="58" height="58" viewBox="0 0 58 58" fill="none" xmlns="http://www.w3.org/2000/svg">
<g clip-path="url(#clip0_25_165)">
<path fill-rule="evenodd" clip-rule="evenodd" d="M36.6004 1.71044L35.1607 1.8611L33.7434 2.15683L32.3596 2.59207L31.0316 3.15565L29.7705 3.85872L28.582 4.68456L27.4827 5.63315L26.4839 6.68218L25.6023 7.82049L24.8322 9.04809L24.1961 10.3482L23.6939 11.7097L23.3312 13.1047L23.1136 14.5388L23.0411 15.984L23.1136 18.322L23.3312 20.6544L23.6995 22.9645L24.2129 25.2467L24.8657 27.4954L25.6636 29.6995L26.5955 31.8422L27.6613 33.9235L28.8554 35.9379L30.1778 37.8742L31.6175 39.7211L33.1687 41.4732H33.1743L33.8606 42.0926L34.6474 42.5892L35.4955 42.9575L36.3995 43.1863L37.3258 43.2811L38.252 43.1863L39.1504 42.9575L40.0041 42.5892L40.7909 42.0926L41.4828 41.4732L43.0341 39.7211L44.4681 37.8742L45.7961 35.9379L46.9847 33.9235L48.0504 31.8422L48.9823 29.6995L49.7802 27.4954L50.4387 25.2467L50.9464 22.9645L51.3147 20.6544L51.5323 18.322L51.6105 15.984L51.5323 14.5388L51.3147 13.1047L50.9576 11.7097L50.4498 10.3482L49.8137 9.04809L49.0548 7.82049L48.1676 6.68218L47.1632 5.63315L46.064 4.68456L44.881 3.85872L43.62 3.15565L42.2864 2.59207L40.9025 2.15683L39.4852 1.8611L38.0456 1.71044H36.6004ZM38.6036 4.62876L37.3258 4.55622L36.0424 4.62876L34.7813 4.8408L33.5537 5.19791L32.3652 5.68895L31.2436 6.30832L30.2002 7.05046L29.246 7.90419L28.3922 8.85837L27.6501 9.90182L27.0252 11.0234L26.5341 12.2119L26.1826 13.4395L25.9705 14.7006L25.898 15.9784L25.965 18.1434L26.1714 20.2917L26.5118 22.4233L26.9805 24.5381L27.5887 26.6082L28.3197 28.6393L29.1846 30.6258L30.1667 32.5453L31.2715 34.4034L32.4824 36.189L33.816 37.8909L35.2444 39.5091L35.6908 39.8941L36.193 40.1731L36.7454 40.3405L37.3258 40.4186L37.9061 40.3405L38.4585 40.1731L38.9607 39.8941L39.4071 39.5091L40.8356 37.8909L42.1692 36.189L43.38 34.4034L44.4849 32.5453L45.4669 30.6258L46.3318 28.6393L47.0628 26.6082L47.671 24.5381L48.1397 22.4233L48.4801 20.2917L48.6866 18.1434L48.7535 15.9784L48.6866 14.7006L48.4689 13.4395L48.1118 12.2119L47.6208 11.0234L47.0014 9.90182L46.2593 8.85837L45.4055 7.90419L44.4514 7.05046L43.4079 6.30832L42.2808 5.68895L41.1034 5.19791L39.8702 4.8408L38.6036 4.62876Z" fill="#BD0000"/>
<path fill-rule="evenodd" clip-rule="evenodd" d="M18.7612 0.427046C18.5385 0.42656 18.3188 0.478153 18.1195 0.577705L0.977901 9.14853C0.492879 9.38979 0.186038 9.88462 0.185547 10.4263V56.1374C0.186611 57.1973 1.301 57.887 2.25013 57.4152L18.8003 49.1401L38.1907 57.4487C38.5761 57.6142 39.0148 57.6019 39.3904 57.4152L56.532 48.8444C57.017 48.6031 57.3239 48.1083 57.3243 47.5666V1.85552C57.3233 0.795565 56.2089 0.105849 55.2598 0.577705L49.1888 3.6132L50.3327 4.8129L51.1306 5.83403L54.4674 4.16562V46.6849L38.7096 54.5638L19.3192 46.2553C18.9338 46.0898 18.4951 46.102 18.1195 46.2887L3.04249 53.8273V11.308L18.8003 3.42907L23.7497 5.54945L24.3133 4.81848L25.513 3.56298L25.7976 3.31747L19.3192 0.544226C19.143 0.468069 18.9532 0.428216 18.7612 0.427046ZM18.7333 6.11861C17.9444 6.13092 17.3148 6.78047 17.3272 7.5694V41.8527C17.2999 43.7844 20.2114 43.7844 20.1841 41.8527V7.5694C20.1967 6.76298 19.5398 6.10599 18.7333 6.11861ZM40.1827 45.6247L40.0767 45.6694L38.7542 46.0042L37.3258 46.1548V50.4235C37.2983 52.3552 40.21 52.3552 40.1827 50.4235V45.6247Z" fill="#0022FF"/>
<path fill-rule="evenodd" clip-rule="evenodd" d="M37.0914 10.2645L36.1819 10.3761L35.3002 10.6384L34.4688 11.0234L33.7099 11.5479L33.0515 12.184L32.4991 12.9206L32.0694 13.7408L31.7737 14.6113L31.6286 15.5153V16.4415L31.7737 17.3455L32.0694 18.216L32.4991 19.0306L33.0515 19.7672L33.7099 20.3977L34.4688 20.9222L35.3002 21.3184L36.1819 21.5751L37.0914 21.6867L38.0121 21.67L38.9161 21.4802L39.7754 21.151L40.5733 20.6935L41.2875 20.1131L41.8958 19.4268L42.3868 18.6456L42.7439 17.803L42.9671 16.9102L43.0396 15.9896V15.984L42.9671 15.0689L42.7439 14.1761L42.3868 13.3279L41.8958 12.5523L41.2875 11.866L40.5733 11.2745L39.7754 10.8169L38.9161 10.4933L38.0121 10.3036L37.0914 10.2645ZM37.9563 13.1996L37.3258 13.1215L36.6897 13.1996L36.0814 13.4116L35.5458 13.752L35.0938 14.204L34.7534 14.7396L34.5414 15.3479L34.4688 15.984L34.5414 16.6145L34.7534 17.2227L35.0938 17.764L35.5458 18.2215L36.0814 18.5619L36.6897 18.774L37.3258 18.8465L37.9563 18.774L38.5645 18.5619L39.1058 18.2215L39.5633 17.764L39.9037 17.2227L40.1102 16.6145L40.1827 15.984L40.1102 15.3479L39.9037 14.7396L39.5633 14.204L39.1058 13.752L38.5645 13.4116L37.9563 13.1996Z" fill="#BD0000"/>
</g>
<defs>
<clipPath id="clip0_25_165">
<rect width="57.1388" height="57.1388" fill="white" transform="translate(0.185547 0.426514)"/>
</clipPath>
</defs>
</svg>
