<svg width="115" height="76" viewBox="0 0 115 76" fill="none" xmlns="http://www.w3.org/2000/svg">
<path d="M66.8314 75.991H61.164C59.5998 75.991 58.3303 74.6472 58.3303 72.9914C58.3303 71.3356 59.5998 69.9917 61.164 69.9917H66.8314C68.3956 69.9917 69.6651 71.3356 69.6651 72.9914C69.6651 74.6472 68.3956 75.991 66.8314 75.991ZM49.8291 75.991H44.1617C42.5975 75.991 41.328 74.6472 41.328 72.9914C41.328 71.3356 42.5975 69.9917 44.1617 69.9917H49.8291C51.3933 69.9917 52.6628 71.3356 52.6628 72.9914C52.6628 74.6472 51.3933 75.991 49.8291 75.991ZM76.5879 71.1706C76.0608 71.1706 75.5309 71.0176 75.0549 70.6907C73.74 69.7938 73.3603 67.937 74.2104 66.5452C74.9443 65.3423 75.3326 63.9385 75.3326 62.4927C75.3326 60.8369 76.6021 59.4931 78.1663 59.4931C79.7333 59.4931 81 60.8369 81 62.4927C81 65.0964 80.2972 67.619 78.9739 69.7938C78.4327 70.6817 77.5202 71.1676 76.5907 71.1676L76.5879 71.1706ZM72.3685 55.9415C71.9746 55.9415 71.5722 55.8545 71.1897 55.6685C70.2659 55.2216 69.2741 54.9936 68.2426 54.9936H66.8286C65.2644 54.9936 63.9949 53.6498 63.9949 51.994C63.9949 50.3382 65.2644 48.9944 66.8286 48.9944H68.2454C70.0959 48.9944 71.8783 49.4053 73.5473 50.2152C74.9699 50.9021 75.5961 52.6839 74.9443 54.1897C74.4683 55.2906 73.4396 55.9415 72.3657 55.9415H72.3685ZM55.4965 54.9936C52.9632 54.9936 50.4752 54.0817 48.4888 52.4259C47.2589 51.4001 47.0464 49.5133 48.0155 48.2145C48.9847 46.9126 50.7699 46.6877 51.9941 47.7135C53 48.5504 54.21 48.9944 55.4937 48.9944C57.0579 48.9944 58.3274 50.3382 58.3274 51.994C58.3274 53.6498 57.0608 54.9936 55.4937 54.9936H55.4965ZM47.7605 42.2572C47.3666 42.2572 46.9671 42.1702 46.5845 41.9843C45.162 41.2973 44.5329 39.5156 45.1847 38.0097C45.7854 36.6179 46.6242 35.3731 47.6755 34.3112C48.8033 33.1714 50.6027 33.2133 51.6824 34.4132C52.762 35.61 52.7195 37.5088 51.586 38.6547C51.0589 39.1856 50.6424 39.8095 50.342 40.5054C49.866 41.6093 48.8373 42.2602 47.7633 42.2602L47.7605 42.2572ZM76.8514 8.39145C74.1736 5.5598 70.6144 4 66.8314 4C63.0484 4 59.4893 5.5598 56.8114 8.39145C51.2885 14.2407 51.2885 23.7555 56.8341 29.6258L61.9376 34.9081C63.2864 36.306 65.0603 37.0049 66.8314 37.0049C68.6025 37.0049 70.3764 36.306 71.7252 34.9081L76.8514 29.6018C82.3744 23.7525 82.3744 14.2377 76.8514 8.39145ZM66.8314 23.4976C64.4851 23.4976 62.5808 21.4818 62.5808 18.9981C62.5808 16.5144 64.4851 14.4987 66.8314 14.4987C69.1777 14.4987 71.082 16.5144 71.082 18.9981C71.082 21.4818 69.1777 23.4976 66.8314 23.4976ZM37.1766 47.3866C34.5015 44.5549 30.9424 42.9951 27.1594 42.9951C23.3764 42.9951 19.8172 44.5549 17.1394 47.3866C11.6164 53.2358 11.6164 62.7507 17.162 68.6209L22.2656 73.9033C23.6144 75.3011 25.3883 76 27.1594 76C28.9305 76 30.7044 75.3011 32.0532 73.9033L37.1766 68.5969C42.7023 62.7477 42.7023 53.2328 37.1766 47.3866ZM27.1594 62.4927C24.8131 62.4927 22.9088 60.4769 22.9088 57.9932C22.9088 55.5096 24.8131 53.4938 27.1594 53.4938C29.5057 53.4938 31.41 55.5096 31.41 57.9932C31.41 60.4769 29.5057 62.4927 27.1594 62.4927Z" fill="white"/>
</svg>
