<svg width="68" height="76" viewBox="0 0 68 76" fill="none" xmlns="http://www.w3.org/2000/svg">
<path d="M64.3195 28.4493C51.8642 14.7883 34.5666 10.4912 19.1193 17.1823L10.5343 7.29601C9.44348 6.04201 7.64715 6.01035 6.52798 7.22951C5.40598 8.44868 5.37765 10.4532 6.46848 11.7072L54.6323 67.165C55.1876 67.8047 57.0265 68.9922 58.6386 67.2315C59.7578 66.0092 59.789 64.0078 58.6981 62.7538L41.7378 43.225C44.3048 44.479 46.7557 46.3568 49.011 48.8363C49.5635 49.4412 51.1671 50.6224 53.0201 48.7952C54.0685 47.7597 54.0997 45.543 52.9833 44.3144C47.6312 38.4465 41.31 35.283 34.6658 35.0803L23.4628 22.1793C36.3431 17.6447 49.963 21.5713 60.3472 32.9682C60.8997 33.573 62.7158 34.6972 64.3563 32.927C65.4812 31.711 65.4358 29.6748 64.3195 28.4462V28.4493Z" fill="white"/>
<path d="M8.82587 23.5376C7.03804 25.0133 5.30404 26.6663 3.68054 28.4523C2.56421 29.6778 2.49337 31.7456 3.64371 32.9299C5.36921 34.7064 7.09754 33.5759 7.65004 32.9711C9.08654 31.3941 10.6137 29.9343 12.1919 28.6328C13.4499 27.5941 13.7162 25.6118 12.7869 24.2058C11.8604 22.7998 10.0839 22.4926 8.82587 23.5376Z" fill="white"/>
<path d="M21.8336 38.6078C19.4168 40.0835 17.1218 42.0025 15.0138 44.3173C13.8975 45.5428 13.8691 47.56 14.977 48.7982C16.5693 50.5778 18.4336 49.4442 18.9861 48.8393C20.7201 46.933 22.593 45.3623 24.5508 44.1653C25.925 43.3262 26.4293 41.4008 25.6785 39.8682C24.9276 38.3355 23.205 37.7623 21.8336 38.6078Z" fill="white"/>
<path d="M34 69.6669C37.912 69.6669 41.0833 66.1749 41.0833 61.8674C41.0833 57.5598 37.912 54.0679 34 54.0679C30.0879 54.0679 26.9166 57.5598 26.9166 61.8674C26.9166 66.1749 30.0879 69.6669 34 69.6669Z" fill="white"/>
</svg>
